<?xml version="1.0" encoding="UTF-8"?>
<!DOCTYPE svg PUBLIC "-//W3C//DTD SVG 1.1//EN" "http://www.w3.org/Graphics/SVG/1.1/DTD/svg11.dtd">
<svg xmlns="http://www.w3.org/2000/svg" version="1.1" width="384px" height="511px" style="shape-rendering:geometricPrecision; text-rendering:geometricPrecision; image-rendering:optimizeQuality; fill-rule:evenodd; clip-rule:evenodd" xmlns:xlink="http://www.w3.org/1999/xlink">
<g><path style="opacity:1" fill="#fefefe" d="M 185.5,-0.5 C 190.167,-0.5 194.833,-0.5 199.5,-0.5C 273.956,5.13635 328.789,40.803 364,106.5C 374.898,129.436 381.398,153.436 383.5,178.5C 383.5,184.5 383.5,190.5 383.5,196.5C 381.344,225.781 373.844,253.781 361,280.5C 336.467,330.645 306.8,377.311 272,420.5C 246.721,451.61 220.221,481.61 192.5,510.5C 191.833,510.5 191.167,510.5 190.5,510.5C 138.142,457.322 91.9756,399.322 52,336.5C 38.089,313.346 25.7557,289.346 15,264.5C 7.13133,244.027 1.96466,223.027 -0.5,201.5C -0.5,192.5 -0.5,183.5 -0.5,174.5C 7.18148,114.285 35.5148,66.4517 84.5,31C 115.501,11.6712 149.168,1.17122 185.5,-0.5 Z"/></g>
<g><path style="opacity:1" fill="#14b5cb" d="M 246.5,92.5 C 249.167,92.5 251.833,92.5 254.5,92.5C 254.5,112.167 254.5,131.833 254.5,151.5C 249.493,179.675 233.16,197.508 205.5,205C 170.986,209.83 146.819,196.33 133,164.5C 132.1,160.166 131.266,155.832 130.5,151.5C 130.5,131.833 130.5,112.167 130.5,92.5C 133.167,92.5 135.833,92.5 138.5,92.5C 149.762,93.298 159.428,97.6313 167.5,105.5C 175.833,97.5 184.167,89.5 192.5,81.5C 200.833,89.5 209.167,97.5 217.5,105.5C 225.572,97.6313 235.238,93.298 246.5,92.5 Z"/></g>
<g><path style="opacity:1" fill="#b7dce5" d="M 138.5,92.5 C 135.833,92.5 133.167,92.5 130.5,92.5C 130.5,112.167 130.5,131.833 130.5,151.5C 129.503,131.674 129.17,111.674 129.5,91.5C 132.713,91.19 135.713,91.5233 138.5,92.5 Z"/></g>
<g><path style="opacity:1" fill="#b7dce5" d="M 246.5,92.5 C 249.287,91.5233 252.287,91.19 255.5,91.5C 255.83,111.674 255.497,131.674 254.5,151.5C 254.5,131.833 254.5,112.167 254.5,92.5C 251.833,92.5 249.167,92.5 246.5,92.5 Z"/></g>
<g><path style="opacity:1" fill="#18b5cb" d="M 105.5,196.5 C 145.98,201.151 173.48,222.485 188,260.5C 189.918,266.342 191.085,272.342 191.5,278.5C 191.5,281.833 191.5,285.167 191.5,288.5C 187.833,288.5 184.167,288.5 180.5,288.5C 140.164,281.666 113.997,258.666 102,219.5C 100.842,214.882 100.008,210.216 99.5,205.5C 99.5,202.5 99.5,199.5 99.5,196.5C 101.5,196.5 103.5,196.5 105.5,196.5 Z"/></g>
<g><path style="opacity:1" fill="#18b5cb" d="M 279.5,196.5 C 281.5,196.5 283.5,196.5 285.5,196.5C 285.5,199.5 285.5,202.5 285.5,205.5C 279.652,246.516 256.986,273.35 217.5,286C 212.565,287.267 207.565,288.1 202.5,288.5C 199.5,288.5 196.5,288.5 193.5,288.5C 193.5,285.167 193.5,281.833 193.5,278.5C 200.347,236.479 224.347,209.646 265.5,198C 270.118,197.006 274.785,196.506 279.5,196.5 Z"/></g>
<g><path style="opacity:1" fill="#b0d9e3" d="M 105.5,196.5 C 103.5,196.5 101.5,196.5 99.5,196.5C 99.5,199.5 99.5,202.5 99.5,205.5C 98.5206,202.375 98.1872,199.042 98.5,195.5C 101.059,195.198 103.393,195.532 105.5,196.5 Z"/></g>
<g><path style="opacity:1" fill="#b1d9e3" d="M 279.5,196.5 C 281.607,195.532 283.941,195.198 286.5,195.5C 286.813,199.042 286.479,202.375 285.5,205.5C 285.5,202.5 285.5,199.5 285.5,196.5C 283.5,196.5 281.5,196.5 279.5,196.5 Z"/></g>
<g><path style="opacity:1" fill="#64c0d2" d="M 191.5,278.5 C 192.167,278.5 192.833,278.5 193.5,278.5C 193.5,281.833 193.5,285.167 193.5,288.5C 196.5,288.5 199.5,288.5 202.5,288.5C 195.167,289.833 187.833,289.833 180.5,288.5C 184.167,288.5 187.833,288.5 191.5,288.5C 191.5,285.167 191.5,281.833 191.5,278.5 Z"/></g>
</svg>
