<?xml version="1.0" encoding="UTF-8"?>
<!DOCTYPE svg PUBLIC "-//W3C//DTD SVG 1.1//EN" "http://www.w3.org/Graphics/SVG/1.1/DTD/svg11.dtd">
<svg xmlns="http://www.w3.org/2000/svg" version="1.1" width="384px" height="511px" style="shape-rendering:geometricPrecision; text-rendering:geometricPrecision; image-rendering:optimizeQuality; fill-rule:evenodd; clip-rule:evenodd" xmlns:xlink="http://www.w3.org/1999/xlink">
<g><path style="opacity:1" fill="#12b5cb" d="M 185.5,-0.5 C 190.167,-0.5 194.833,-0.5 199.5,-0.5C 273.956,5.13635 328.789,40.803 364,106.5C 374.898,129.436 381.398,153.436 383.5,178.5C 383.5,184.5 383.5,190.5 383.5,196.5C 381.344,225.781 373.844,253.781 361,280.5C 336.467,330.645 306.8,377.311 272,420.5C 246.721,451.61 220.221,481.61 192.5,510.5C 191.833,510.5 191.167,510.5 190.5,510.5C 138.142,457.322 91.9756,399.322 52,336.5C 38.089,313.346 25.7557,289.346 15,264.5C 7.13133,244.027 1.96466,223.027 -0.5,201.5C -0.5,192.5 -0.5,183.5 -0.5,174.5C 7.18148,114.285 35.5148,66.4517 84.5,31C 115.501,11.6712 149.168,1.17122 185.5,-0.5 Z"/></g>
<g><path style="opacity:1" fill="#fdfefe" d="M 291.5,165.5 C 290.502,202.663 290.168,239.996 290.5,277.5C 298.833,277.5 307.167,277.5 315.5,277.5C 315.5,285.833 315.5,294.167 315.5,302.5C 232.167,302.5 148.833,302.5 65.5,302.5C 65.5,294.167 65.5,285.833 65.5,277.5C 73.8333,277.5 82.1667,277.5 90.5,277.5C 90.8318,239.996 90.4985,202.663 89.5,165.5C 81.5,165.5 73.5,165.5 65.5,165.5C 65.1828,156.582 65.5161,147.749 66.5,139C 107.971,110.361 149.305,81.5281 190.5,52.5C 231.695,81.5281 273.029,110.361 314.5,139C 315.484,147.749 315.817,156.582 315.5,165.5C 307.5,165.5 299.5,165.5 291.5,165.5 Z"/></g>
<g><path style="opacity:1" fill="#17b5cb" d="M 115.5,140.5 C 165.5,140.5 215.5,140.5 265.5,140.5C 265.5,186.167 265.5,231.833 265.5,277.5C 215.5,277.5 165.5,277.5 115.5,277.5C 115.5,231.833 115.5,186.167 115.5,140.5 Z"/></g>
<g><path style="opacity:1" fill="#4fbbcf" d="M 89.5,165.5 C 90.4985,202.663 90.8318,239.996 90.5,277.5C 82.1667,277.5 73.8333,277.5 65.5,277.5C 73.3159,276.508 81.3159,276.174 89.5,276.5C 89.5,239.5 89.5,202.5 89.5,165.5 Z"/></g>
<g><path style="opacity:1" fill="#fdfefe" d="M 140.5,164.5 C 148.84,164.334 157.173,164.5 165.5,165C 173.671,177.327 182.004,189.494 190.5,201.5C 198.996,189.494 207.329,177.327 215.5,165C 223.827,164.5 232.16,164.334 240.5,164.5C 240.5,193.833 240.5,223.167 240.5,252.5C 232.167,252.5 223.833,252.5 215.5,252.5C 215.667,236.163 215.5,219.83 215,203.5C 207.029,215.637 198.862,227.637 190.5,239.5C 182.138,227.637 173.971,215.637 166,203.5C 165.5,219.83 165.333,236.163 165.5,252.5C 157.167,252.5 148.833,252.5 140.5,252.5C 140.5,223.167 140.5,193.833 140.5,164.5 Z"/></g>
<g><path style="opacity:1" fill="#4fbbcf" d="M 291.5,165.5 C 291.5,202.5 291.5,239.5 291.5,276.5C 299.684,276.174 307.684,276.508 315.5,277.5C 307.167,277.5 298.833,277.5 290.5,277.5C 290.168,239.996 290.502,202.663 291.5,165.5 Z"/></g>
</svg>
